<svg xmlns="http://www.w3.org/2000/svg" viewBox="0 0 3000 3000"><path d="M436.39 2233.51 1706.4 2.44c9.56 470.47 316.5 1371.15-417.63 2235.1-250.58-186.17-582.68-123.78-852.38-4.03" style="fill:#00436c"/><path d="M1196.18 2432.77c128.81-128.81 846.34-819.17 622.93-1875.83 706.46 1146.23 500.15 1589.02-190.2 1756.08-53.15 12.86-291.84 88.56-432.73 119.76Z" style="fill:#bf2421;stroke:#000;stroke-miterlimit:10"/><path d="M216 2540.44c113.72 77.49 320.11 296.65 834.26 282.78 485.06-13.08 838.29-390.46 1731.92-447.82-483.05-158-985.21 1.01-1404.86 152.96-296.55 107.39-735.64 219.38-1161.33 12.08Zm903.19 430.36c102.14 21.5 181.31 33.48 333.6 18.48 327.06-32.2 603.81-319.01 1102.96-460.91-297.88 7.04-539.4 83.53-801.54 227.68-245.62 135.08-471.49 224.17-635.02 214.74Z" style="stroke:#000;stroke-miterlimit:10"/></svg>